<?xml version="1.0" encoding="UTF-8"?>
<svg xmlns="http://www.w3.org/2000/svg" xmlns:xlink="http://www.w3.org/1999/xlink" width="430pt" height="320pt" viewBox="0 0 430 320" version="1.1">
<defs>
<filter id="alpha" filterUnits="objectBoundingBox" x="0%" y="0%" width="100%" height="100%">
  <feColorMatrix type="matrix" in="SourceGraphic" values="0 0 0 0 1 0 0 0 0 1 0 0 0 0 1 0 0 0 1 0"/>
</filter>
<mask id="mask0">
  <g filter="url(#alpha)">
<rect x="0" y="0" width="430" height="320" style="fill:rgb(0%,0%,0%);fill-opacity:0.811765;stroke:none;"/>
  </g>
</mask>
<clipPath id="clip1">
  <rect width="430" height="320"/>
</clipPath>
<g id="surface6" clip-path="url(#clip1)">
<path style=" stroke:none;fill-rule:nonzero;fill:rgb(75.686275%,15.294118%,17.647059%);fill-opacity:1;" d="M 63.136719 62.773438 L 52.960938 59.574219 C 51.242188 59.039062 50.167969 57.8125 50.167969 56.425781 L 50.167969 22.507812 C 50.167969 21.171875 51.242188 19.945312 52.890625 19.359375 L 69.945312 13.652344 C 73.242188 12.585938 76.828125 14.558594 76.398438 17.171875 L 69.515625 60 C 69.160156 62.292969 66.003906 63.625 63.136719 62.773438 Z M 63.136719 62.773438 "/>
</g>
<mask id="mask1">
  <g filter="url(#alpha)">
<rect x="0" y="0" width="430" height="320" style="fill:rgb(0%,0%,0%);fill-opacity:0.321569;stroke:none;"/>
  </g>
</mask>
<clipPath id="clip2">
  <rect width="430" height="320"/>
</clipPath>
<g id="surface9" clip-path="url(#clip2)">
<path style=" stroke:none;fill-rule:nonzero;fill:rgb(100%,0%,0%);fill-opacity:1;" d="M 54.25 54.453125 L 45.578125 51.734375 C 43.574219 51.09375 42.285156 49.601562 42.285156 48 L 42.285156 14.933594 C 42.285156 13.332031 43.574219 11.894531 45.507812 11.253906 L 60.773438 6.1875 C 64.644531 4.90625 68.941406 7.253906 68.441406 10.347656 L 61.777344 51.199219 C 61.347656 53.867188 57.621094 55.464844 54.25 54.453125 Z M 54.25 54.453125 "/>
</g>
<linearGradient id="linear0" gradientUnits="userSpaceOnUse" x1="273" y1="123" x2="273" y2="10.7449" gradientTransform="matrix(-0.716667,0,0,0.533333,432.15,0)">
<stop offset="0" style="stop-color:rgb(32.54902%,0%,7.058824%);stop-opacity:1;"/>
<stop offset="1" style="stop-color:rgb(100%,0%,0%);stop-opacity:1;"/>
</linearGradient>
<linearGradient id="linear1" gradientUnits="userSpaceOnUse" x1="75" y1="75.6511" x2="573" y2="75.6511" gradientTransform="matrix(0.716667,0,0,0.533333,0,0)">
<stop offset="0" style="stop-color:rgb(32.54902%,0%,7.058824%);stop-opacity:1;"/>
<stop offset="1" style="stop-color:rgb(100%,0%,0%);stop-opacity:1;"/>
</linearGradient>
<linearGradient id="linear2" gradientUnits="userSpaceOnUse" x1="62" y1="78" x2="481" y2="78" gradientTransform="matrix(-0.716667,0,0,0.533333,457.95,0)">
<stop offset="0" style="stop-color:rgb(32.54902%,0%,7.058824%);stop-opacity:1;"/>
<stop offset="0.7051" style="stop-color:rgb(91.372549%,0%,1.176471%);stop-opacity:1;"/>
<stop offset="0.7872" style="stop-color:rgb(94.117647%,0%,0.784314%);stop-opacity:1;"/>
<stop offset="0.9051" style="stop-color:rgb(97.647059%,0%,0.392157%);stop-opacity:1;"/>
<stop offset="1" style="stop-color:rgb(100%,0%,0%);stop-opacity:1;"/>
</linearGradient>
</defs>
<g id="surface1">
<use xlink:href="#surface6" mask="url(#mask0)"/>
<use xlink:href="#surface9" mask="url(#mask1)"/>
<path style=" stroke:none;fill-rule:nonzero;fill:url(#linear0);" d="M 161.25 29.332031 C 291.753906 6.988281 280.433594 44.105469 414.949219 65.601562 L 407.785156 59.734375 C 350.449219 14.398438 194.933594 -33.601562 58.050781 57.066406 Z M 161.25 29.332031 "/>
<path style=" stroke:none;fill-rule:nonzero;fill:url(#linear1);" d="M 298.851562 38.398438 C 184.898438 21.332031 188.269531 44.105469 53.75 65.601562 L 55.183594 58.667969 C 88.148438 16.375 305.875 -17.761719 410.648438 66.132812 Z M 298.851562 38.398438 "/>
<path style=" stroke:none;fill-rule:nonzero;fill:url(#linear2);" d="M 209.984375 34.132812 C 234.351562 25.066406 250.117188 38.933594 413.515625 64.535156 L 230.050781 18.667969 C 192.785156 27.199219 126.132812 48 113.234375 54.398438 Z M 209.984375 34.132812 "/>
<path style="fill-rule:nonzero;fill:rgb(93.72549%,93.72549%,93.72549%);fill-opacity:1;stroke-width:7;stroke-linecap:butt;stroke-linejoin:miter;stroke:rgb(94.509804%,35.294118%,14.117647%);stroke-opacity:1;stroke-miterlimit:10;" d="M 565.797602 579.997559 L 34.000727 579.997559 C 23.99891 579.997559 15.801235 571.801758 15.801235 561.70166 L 15.801235 115.50293 L 15 45.703125 C 14.90189 35.698242 22.897892 27.399902 32.801599 27.202148 L 52.5 26.799316 C 62.801599 26.601562 71.200945 35.097656 70.999273 45.402832 L 69.800145 102.297363 C 69.500363 114.499512 81.099201 123.500977 92.801599 120.300293 L 308.699128 60.79834 C 311.702398 60 314.798328 59.897461 317.801599 60.703125 L 569.100654 122.402344 C 577.200218 124.401855 582.901526 131.696777 582.999637 140.097656 L 584.002544 561.70166 C 584.002544 571.801758 575.897529 579.997559 565.797602 579.997559 Z M 565.797602 579.997559 " transform="matrix(0.716667,0,0,0.533333,0,0)"/>
</g>
</svg>
