<?xml version="1.0" encoding="utf-8"?>
<!-- Generator: Adobe Illustrator 22.0.0, SVG Export Plug-In . SVG Version: 6.00 Build 0)  -->
<svg version="1.1" id="Capa_1" xmlns="http://www.w3.org/2000/svg" xmlns:xlink="http://www.w3.org/1999/xlink" x="0px" y="0px"
	 viewBox="0 0 600 600" style="enable-background:new 0 0 600 600;" xml:space="preserve">
<style type="text/css">
	.st0{opacity:0.81;fill:#C1272D;}
	.st1{opacity:0.32;fill:#FF0000;}
	.st2{fill:url(#SVGID_1_);}
	.st3{fill:url(#SVGID_2_);}
	.st4{fill:url(#SVGID_3_);}
	.st5{fill:#EFEFEF;stroke:#F15A24;stroke-width:7;stroke-miterlimit:10;}
</style>
<g>
	<path class="st0" d="M88.1,117.7l-14.2-6c-2.4-1-3.9-3.3-3.9-5.9V42.2c0-2.5,1.5-4.8,3.8-5.9l23.8-10.7c4.6-2,9.6,1.7,9,6.6
		L97,112.5C96.5,116.8,92.1,119.3,88.1,117.7z"/>
	<path class="st1" d="M75.7,102.1L63.6,97C60.8,95.8,59,93,59,90v-62c0-3,1.8-5.7,4.5-6.9l21.3-9.5c5.4-2.4,11.4,2,10.7,7.8L86.2,96
		C85.6,101,80.4,104,75.7,102.1z"/>
	
		<linearGradient id="SVGID_1_" gradientUnits="userSpaceOnUse" x1="273" y1="123" x2="273" y2="10.7449" gradientTransform="matrix(-1 0 0 1 603 0)">
		<stop  offset="0" style="stop-color:#530012"/>
		<stop  offset="1" style="stop-color:#FF0000"/>
	</linearGradient>
	<path class="st2" d="M225,55c182.1-41.9,166.3,27.7,354,68l-10-11c-80-85-297-175-488-5L225,55z"/>
	<linearGradient id="SVGID_2_" gradientUnits="userSpaceOnUse" x1="75" y1="75.6511" x2="573" y2="75.6511">
		<stop  offset="0" style="stop-color:#530012"/>
		<stop  offset="1" style="stop-color:#FF0000"/>
	</linearGradient>
	<path class="st3" d="M417,72C258,40,262.7,82.7,75,123l2-13c46-79.3,349.8-143.3,496,14L417,72z"/>
	
		<linearGradient id="SVGID_3_" gradientUnits="userSpaceOnUse" x1="62" y1="78" x2="481" y2="78" gradientTransform="matrix(-1 0 0 1 639 0)">
		<stop  offset="0" style="stop-color:#530012"/>
		<stop  offset="0.7051" style="stop-color:#E90003"/>
		<stop  offset="0.7872" style="stop-color:#F00002"/>
		<stop  offset="0.9051" style="stop-color:#F90001"/>
		<stop  offset="1" style="stop-color:#FF0000"/>
	</linearGradient>
	<path class="st4" d="M293,64c34-17,56,9,284,57L321,35c-52,16-145,55-163,67L293,64z"/>
	<path class="st5" d="M565.8,580H34c-10,0-18.2-8.2-18.2-18.3V115.5L15,45.7c-0.1-10,7.9-18.3,17.8-18.5l19.7-0.4
		c10.3-0.2,18.7,8.3,18.5,18.6l-1.2,56.9c-0.3,12.2,11.3,21.2,23,18l215.9-59.5c3-0.8,6.1-0.9,9.1-0.1l251.3,61.7
		c8.1,2,13.8,9.3,13.9,17.7l1,421.6C584,571.8,575.9,580,565.8,580z"/>
</g>
</svg>
