<?xml version="1.0" encoding="utf-8"?>
<!-- Generator: Adobe Illustrator 22.0.0, SVG Export Plug-In . SVG Version: 6.00 Build 0)  -->
<svg version="1.1" id="Capa_1" xmlns="http://www.w3.org/2000/svg" xmlns:xlink="http://www.w3.org/1999/xlink" x="0px" y="0px"
	 viewBox="0 0 600 600" style="enable-background:new 0 0 600 600;" xml:space="preserve">
<style type="text/css">
	.st0{fill:#FF9600;}
	.st1{fill:#C9D501;}
	.st2{fill:#4E9400;}
	.st3{fill:#68A900;}
	.st4{fill:#84BA00;}
	.st5{fill:#9DC600;}
	.st6{fill:#FFA000;}
	.st7{fill:#FFDB00;}
	.st8{fill:#FFD100;}
	.st9{fill:#FFE800;}
	.st10{fill:#FFE300;}
	.st11{fill:#FFAB00;}
	.st12{fill:#FFB600;}
	.st13{fill:#FFC100;}
	.st14{fill:#FFC900;}
</style>
<path class="st0" d="M-0.9,587.7c0-0.9-0.1-1.7-0.1-2.6c0-188.9,0-377.9,0-566.8c0-0.9,0.1-1.7,0.1-2.6c4.6,0,9.2,0,13.9,0
	c0.9,0,1.7,0.1,2.6,0.1c17.7,0,35.3,0,53,0c1,0,1.9,0.1,2.9,0.1c0,188.6,0,377.3,0,565.9c0,0.7,0,1.4,0,2.1c0.1,2.3,0.4,2.6,2.6,2.6
	c2.2,0,4.5,0,6.7,0c0.7,0,1.5-0.1,1.7,0.9c-1,0-1.9,0.1-2.9,0.1c-21.2,0-42.3,0-63.5,0c-1,0-2.1,0.1-3.1,0.1
	C8.4,587.8,3.7,587.8-0.9,587.7z"/>
<path class="st1" d="M428.9,2.1c0.9,0,1.8-0.1,2.6-0.1c16.4,0,32.7,0,49.1,0c39.1,0,78.2,0,117.3,0c3.4,0,3-0.4,3,3.1
	c0,197.8,0,395.6,0,593.5c0,3.3,0.4,3-3.1,3c-55.4,0-110.9,0-166.3,0c-0.9,0-1.7-0.1-2.6-0.1c0-4.6,0-9.2,0-13.8
	c5,0,9.9-0.1,14.9-0.1c23.5,0,47,0,70.4,0c10.2,0,20.4,0,30.7,0c13.3,0,26.5,0,39.8,0c2.4,0,2.4,0,2.4-2.4c0-6,0-11.9,0-17.9
	c0-182.7,0-365.4,0-548.1c0-0.8,0-1.6,0-2.4c0-0.8-0.4-1.1-1.2-1.1c-0.4,0-0.8,0-1.2,0c-13.4,0-26.8,0-40.2,0c-10.2,0-20.4,0-30.7,0
	c-18.6,0-37.2,0-55.8,0c-4.9,0-9.7,0-14.6,0.1c-4.8,0-9.6-0.1-14.4-0.1C428.9,11.3,428.9,6.7,428.9,2.1z"/>
<path class="st2" d="M13,587.8c1,0,2.1-0.1,3.1-0.1c21.2,0,42.3,0,63.5,0c1,0,1.9-0.1,2.9-0.1c1.1,0,2.2,0.1,3.3,0.1
	c17.4,0,34.8,0,52.2,0c1,0,1.9,0.1,2.9,0.1c0,4.6,0,9.1,0,13.7c-0.9,0-1.7,0.1-2.6,0.1c-40.8,0-81.7,0-122.5,0c-1,0-1.9-0.1-2.9-0.1
	C13,596.9,13,592.3,13,587.8z"/>
<path class="st2" d="M71.4,16c-1,0-1.9-0.1-2.9-0.1c-17.7,0-35.3,0-53,0c-0.9,0-1.7-0.1-2.6-0.1c0-4.4,0-8.8,0.1-13.2
	c0.1-0.1,0.3-0.2,0.4-0.4c0.7,0,1.4-0.1,2.1-0.1c36.6,0,73.2,0,109.8,0c0.7,0,1.4,0.1,2.1,0.1c0,4.6,0,9.1,0,13.7
	c-1,0-1.9,0.1-2.9,0.1c-16.8,0-33.6,0-50.3,0C73.3,15.9,72.4,15.9,71.4,16z"/>
<path class="st3" d="M127.5,15.8c0-4.6,0-9.1,0-13.7c0.7,0,1.4-0.1,2.1-0.1c36.7,0,73.5,0,110.2,0c0.7,0,1.4,0.1,2.1,0.1
	c0,2.8,0,5.7,0,8.5c0,1.8,0.1,3.6-1,5.2c-5.1,0-10.1,0-15.2,0.1c-4.2,0-8.4,0.1-12.6,0.1c-0.7,0-1.4-0.1-2.1-0.1
	c-22.4,0-44.7,0-67.1,0c-0.7,0-1.4,0.1-2.1,0.1c-0.9,0-1.9-0.1-2.8-0.1C135.2,15.8,131.4,15.8,127.5,15.8z"/>
<path class="st4" d="M241.1,15.8c1.1-1.6,1-3.4,1-5.2c0-2.8,0-5.7,0-8.5c0.7,0,1.4-0.1,2.1-0.1c32.4,0,64.9,0,97.3,0
	c0.7,0,1.4,0.1,2.1,0.1c0,3.4,0,6.8,0,10.2c0,1.2-0.1,2.4-0.5,3.5c-0.2,0-0.3,0.1-0.5,0.1c-0.6,0-1.1-0.1-1.7-0.1
	c-18.2,0-36.4,0-54.7,0c-0.6,0-1.1,0.1-1.7,0.1c-1,0-1.9-0.1-2.9-0.1c-9.6,0-19.2,0-28.8,0C249,15.9,245,15.8,241.1,15.8z"/>
<path class="st3" d="M140.9,601.5c0-4.6,0-9.1,0-13.7c0.3-0.1,0.7-0.1,1-0.2c0.6,0,1.3,0.1,1.9,0.1c22.5,0,45.1,0,67.6,0
	c0.6,0,1.3,0,1.9-0.1c2.2,0,4.3,0.1,6.5,0.1c7.4,0,14.8,0.1,22.3,0.1c0,4.6,0,9.1,0,13.7c-0.8,0-1.6,0.1-2.4,0.1
	c-32.1,0-64.2,0-96.4,0C142.5,601.6,141.7,601.5,140.9,601.5z"/>
<path class="st5" d="M428.9,587.7c0,4.6,0,9.2,0,13.8c-0.8,0-1.6,0.1-2.4,0.1c-32,0-63.9,0-95.9,0c-0.8,0-1.6-0.1-2.4-0.1
	c0-4.6,0-9.2,0-13.7c5,0,9.9-0.1,14.9-0.1c14.5,0,29.1,0,43.6,0c1,0,2.1,0,3.1,0C402.9,587.7,415.9,587.7,428.9,587.7z"/>
<path class="st4" d="M328.3,587.7c0,4.6,0,9.2,0,13.7c-0.7,0-1.4,0.1-2.1,0.1c-27.3,0-54.7,0-82,0c-0.7,0-1.4-0.1-2.1-0.1
	c0-4.6,0-9.1,0-13.7c4.7,0,9.4-0.1,14.1-0.1c9.5,0,19.1,0,28.6-0.1c8.1,0,16.1,0,24.2,0.1C315.3,587.7,321.8,587.7,328.3,587.7z"/>
<path class="st5" d="M343.1,15.8c0.4-1.1,0.5-2.3,0.5-3.5c0-3.4,0-6.8,0-10.2c0.7,0,1.4-0.1,2.1-0.1c27,0,54,0,81,0
	c0.7,0,1.4,0.1,2.1,0.1c0,4.6,0,9.1,0,13.7c-7.7,0-15.3,0-23,0c-6.5,0-13.1,0-19.6,0.1c-2.4,0-4.8-0.1-7.1-0.1
	C367.1,15.8,355.1,15.8,343.1,15.8z"/>
<path class="st5" d="M13,2.5c0,4.4,0,8.8-0.1,13.2c-4.6,0-9.2,0-13.9,0c0-4.1,0-8.2-0.1-12.3C-1,2.5-0.7,2,0.3,2
	C4.5,2.1,8.8,2.1,13,2.1C13,2.2,13,2.4,13,2.5z"/>
<path class="st5" d="M13,587.8c0,4.6,0,9.1,0,13.7c-4.2,0-8.4,0.1-12.7,0.1c-1.1,0-1.3-0.5-1.3-1.5c0.1-4.1,0.1-8.2,0.1-12.4
	C3.7,587.8,8.4,587.8,13,587.8z"/>
<path class="st3" d="M13,2.5C13,2.4,13,2.2,13,2.1c0.2,0,0.3,0,0.5,0C13.3,2.2,13.2,2.4,13,2.5z"/>
<path class="st6" d="M141.9,587.6c-0.3,0.1-0.7,0.1-1,0.2c-1,0-1.9-0.1-2.9-0.1c-17.4,0-34.8,0-52.2,0c-1.1,0-2.2-0.1-3.3-0.1
	c-0.2-1-1-0.9-1.7-0.9c-2.2,0-4.5,0-6.7,0c-2.2,0-2.6-0.4-2.6-2.6c0-0.7,0-1.4,0-2.1c0-188.6,0-377.3,0-565.9c1,0,1.9-0.1,2.9-0.1
	c16.8,0,33.6,0,50.3,0c1,0,1.9,0,2.9-0.1c3.9,0,7.7,0.1,11.6,0.1c0.9,0,1.9,0.1,2.8,0.1C141.9,206.5,141.9,397,141.9,587.6z"/>
<path class="st7" d="M443.3,15.9c4.9,0,9.7-0.1,14.6-0.1c18.6,0,37.2,0,55.8,0c0,189.2,0,378.4,0,567.5c0,1.4-0.1,2.9,0.5,4.2
	c-23.5,0-47,0-70.4,0c0.1-1.6-0.5-3.1-0.5-4.7C443.3,393.9,443.3,204.9,443.3,15.9z"/>
<path class="st8" d="M443.3,15.9c0,189,0,378,0,567c0,1.6,0.6,3.1,0.5,4.7c-5,0-9.9,0.1-14.9,0.1c-13,0-26,0-39,0c-1,0-2.1,0-3.1,0
	c0-1.7-0.5-3.2-0.5-4.9c0-188.9,0-377.8,0-566.8c6.5,0,13.1-0.1,19.6-0.1c7.7,0,15.3,0,23,0C433.7,15.9,438.5,15.9,443.3,15.9z"/>
<path class="st9" d="M544.4,15.8c13.4,0,26.8,0,40.2,0c0.4,0,0.8,0,1.2,0c0.8,0,1.2,0.4,1.2,1.1c0,0.8,0,1.6,0,2.4
	c0,182.7,0,365.4,0,548.1c0,6,0,11.9,0,17.9c0,2.3,0,2.4-2.4,2.4c-13.3,0-26.5,0-39.8,0c-0.6-2.3-0.5-4.7-0.5-7.1
	C544.4,392.3,544.4,204.1,544.4,15.8z"/>
<path class="st10" d="M544.4,15.8c0,188.2,0,376.5,0,564.7c0,2.4-0.2,4.7,0.5,7.1c-10.2,0-20.4,0-30.7,0c-0.5-1.4-0.5-2.8-0.5-4.2
	c0-189.2,0-378.4,0-567.5C524,15.9,534.2,15.9,544.4,15.8z"/>
<path class="st11" d="M141.9,587.6c0-190.5,0-381.1,0-571.6c0.7,0,1.4-0.1,2.1-0.1c22.4,0,44.7,0,67.1,0c0.7,0,1.4,0.1,2.1,0.1
	c0,190.5,0,381.1,0,571.6c-0.6,0-1.3,0.1-1.9,0.1c-22.5,0-45.1,0-67.6,0C143.2,587.6,142.5,587.6,141.9,587.6z"/>
<path class="st12" d="M213.3,587.6c0-190.5,0-381.1,0-571.6c4.2,0,8.4-0.1,12.6-0.1c5.1,0,10.1,0,15.2-0.1c4,0,7.9,0.1,11.9,0.1
	c9.6,0,19.2,0,28.8,0c1,0,1.9,0.1,2.9,0.1c0,190.5,0,381.1,0,571.6c-9.5,0-19.1,0-28.6,0.1c-4.7,0-9.4,0.1-14.1,0.1
	c-7.4,0-14.8-0.1-22.3-0.1C217.6,587.6,215.4,587.6,213.3,587.6z"/>
<path class="st13" d="M284.7,587.6c0-190.5,0-381.1,0-571.6c0.6,0,1.1-0.1,1.7-0.1c18.2,0,36.4,0,54.7,0c0.6,0,1.1,0.1,1.7,0.1
	c0,189.1,0,378.3,0,567.5c0,1.4-0.1,2.9,0.5,4.2c-5,0-9.9,0.1-14.9,0.1c-6.5,0-12.9-0.1-19.4-0.1
	C300.8,587.6,292.8,587.6,284.7,587.6z"/>
<path class="st14" d="M343.1,587.6c-0.6-1.4-0.5-2.8-0.5-4.2c0-189.2,0-378.3,0-567.5c0.2,0,0.3-0.1,0.5-0.1c12,0,24,0,36,0.1
	c2.4,0,4.8,0,7.1,0.1c0,188.9,0,377.8,0,566.8c0,1.7,0.6,3.3,0.5,4.9C372.2,587.6,357.7,587.6,343.1,587.6z"/>
</svg>
