<?xml version="1.0" encoding="utf-8"?>
<!-- Generator: Adobe Illustrator 22.0.0, SVG Export Plug-In . SVG Version: 6.00 Build 0)  -->
<svg version="1.1" id="Capa_1" xmlns="http://www.w3.org/2000/svg" xmlns:xlink="http://www.w3.org/1999/xlink" x="0px" y="0px"
	 viewBox="0 0 164 229" style="enable-background:new 0 0 164 229;" xml:space="preserve">
<style type="text/css">
	.st0{fill:#FEFEFE;}
</style>
<g>
	<path class="st0" d="M18.2,4c1.3,0,2.6,0,3.9,0c2.1,1.3,4.2,2.5,6.2,4c33.5,25.9,66.9,51.9,100.3,77.8c7.9,6.1,15.7,12.2,23.5,18.4
		c7.5,6,7.4,14.5,0,20.6c-0.5,0.4-1.1,0.8-1.7,1.3c-28,21.8-56,43.6-84,65.3c-14.7,11.4-29.6,22.4-44.4,33.6c-1.6,0-3.1,0-4.7,0
		c-4.7-3.5-6.4-8.9-6.4-15.6c0.1-28.4,0-56.9,0-85.3c0-34.8,0-69.6,0-104.4C11,12.8,12.4,6.8,18.2,4z"/>
</g>
</svg>
