<?xml version="1.0" encoding="utf-8"?>
<!-- Generator: Adobe Illustrator 22.0.0, SVG Export Plug-In . SVG Version: 6.00 Build 0)  -->
<svg version="1.1" id="Capa_1" xmlns="http://www.w3.org/2000/svg" xmlns:xlink="http://www.w3.org/1999/xlink" x="0px" y="0px"
	 viewBox="0 0 512 512" style="enable-background:new 0 0 512 512;" xml:space="preserve">
<style type="text/css">
	.st0{fill:#262626;}
</style>
<g>
	<path class="st0" d="M432.4,78.2C384.9,30.7,321.8,4.5,254.6,4.5c-60.5,0-118,21.4-163.6,60.6l0,0L42.2,17.2l-9.8,165.6l168.3-12.5
		l-47.8-44.2C181.8,103.4,217.3,91,254.5,91c90.9,0,164.8,74,164.8,165s-74,165-164.8,165c-41.7,0-81.5-15.6-112.1-44
		c-30.4-28.3-48.9-66.5-52.2-107.8l0,0c-0.6-7.7-7-13.6-14.7-13.6h-57c-8.5,0-15.2,7.1-14.7,15.6l0,0
		c7.9,132.5,118.1,236.3,250.9,236.3c67.1,0,130.3-26.2,177.7-73.7c47.5-47.5,73.6-110.7,73.6-177.9S479.9,125.7,432.4,78.2
		L432.4,78.2z"/>
</g>
</svg>
